<?xml version="1.0" standalone="no"?>
<!DOCTYPE svg PUBLIC "-//W3C//DTD SVG 20010904//EN"
 "http://www.w3.org/TR/2001/REC-SVG-20010904/DTD/svg10.dtd">
<svg version="1.0" xmlns="http://www.w3.org/2000/svg"
 width="900.000000pt" height="909.000000pt" viewBox="0 0 900.000000 909.000000"
 preserveAspectRatio="xMidYMid meet">
<g transform="translate(0.000000,909.000000) scale(0.100000,-0.100000)"
fill="#000000" stroke="none">
<path d="M3490 5811 c-103 -33 -170 -125 -170 -231 0 -141 110 -250 252 -250
95 0 173 53 219 148 32 65 24 172 -17 233 -47 70 -101 100 -187 105 -39 2 -83
0 -97 -5z"/>
<path d="M1527 5173 c-4 -3 -7 -372 -7 -819 l0 -813 21 -12 c15 -8 134 -10
408 -7 416 4 391 1 521 61 63 29 151 120 184 190 58 124 60 303 6 414 -49 98
-152 187 -254 218 -17 5 -12 13 36 63 85 87 118 169 118 292 0 197 -108 336
-311 400 -59 18 -92 20 -390 20 -179 0 -329 -3 -332 -7z m592 -310 c14 -11 41
-39 59 -62 28 -37 32 -51 32 -100 0 -102 -72 -173 -187 -186 -34 -4 -78 -4
-97 -1 l-36 7 0 179 c0 207 -10 191 119 186 63 -3 90 -9 110 -23z m55 -665
c85 -24 156 -111 156 -190 0 -74 -72 -168 -144 -187 -24 -7 -93 -11 -166 -9
l-125 3 -3 184 c-2 127 1 188 9 197 15 18 213 19 273 2z"/>
<path d="M3377 5174 c-4 -4 -7 -372 -7 -819 0 -617 3 -814 12 -823 17 -17 318
-17 341 1 16 11 17 70 15 827 l-3 815 -176 3 c-96 1 -178 -1 -182 -4z"/>
<path d="M4405 5171 c-3 -6 1 -18 10 -28 17 -19 117 -159 220 -307 52 -74 105
-148 245 -344 17 -23 52 -73 78 -110 l47 -67 2 -389 c1 -311 4 -391 15 -397
21 -14 322 -11 336 3 9 9 12 110 12 394 l0 381 24 35 c13 19 70 100 126 179
57 79 135 189 173 244 39 55 98 138 132 185 138 191 156 220 143 225 -8 3
-105 4 -218 3 l-204 -3 -57 -90 c-52 -81 -115 -183 -245 -392 -54 -87 -58 -86
-124 24 -25 41 -52 86 -60 98 -8 13 -41 66 -73 117 -32 51 -80 127 -106 168
l-48 75 -211 3 c-130 1 -213 -1 -217 -7z"/>
<path d="M6657 5173 c-4 -3 -7 -374 -7 -824 0 -736 2 -817 16 -823 20 -8 308
-8 328 0 14 5 16 58 16 494 0 275 4 491 9 494 8 5 32 -23 56 -69 6 -11 31 -56
55 -100 23 -44 46 -84 50 -90 4 -5 22 -37 40 -70 34 -62 49 -90 133 -240 27
-49 62 -112 77 -140 115 -210 149 -268 164 -277 15 -10 328 -10 344 0 10 7 12
179 10 828 l-3 819 -175 0 -175 0 -5 -490 c-3 -269 -6 -491 -8 -492 -9 -10
-24 2 -36 30 -8 17 -34 64 -56 102 -22 39 -48 84 -56 100 -8 17 -23 44 -33 60
-9 17 -35 62 -56 100 -21 39 -49 88 -61 110 -12 22 -37 67 -54 100 -18 33 -48
85 -66 116 -19 31 -34 59 -34 63 0 3 -20 40 -45 82 -25 41 -45 79 -45 83 0 4
-8 15 -18 24 -16 14 -44 17 -189 17 -93 0 -173 -3 -176 -7z"/>
<path d="M2606 2525 c-11 -30 -7 -170 6 -183 7 -7 39 -12 75 -12 49 0 63 3 63
15 0 15 -20 22 -75 27 -22 2 -30 8 -30 23 0 16 8 21 45 25 57 6 59 24 3 28
-83 6 -79 59 5 64 70 4 57 23 -19 26 -54 2 -68 0 -73 -13z"/>
<path d="M3004 2526 c-3 -8 -6 -52 -7 -98 -2 -68 1 -83 13 -83 11 0 16 14 18
53 4 71 27 70 78 -5 64 -93 77 -82 66 57 -8 95 -25 110 -30 25 -2 -30 -6 -55
-11 -55 -4 0 -27 27 -51 60 -43 60 -66 73 -76 46z"/>
<path d="M3412 2528 c3 -7 15 -15 29 -18 22 -5 24 -11 29 -88 3 -45 10 -82 15
-82 6 0 12 37 15 82 5 82 5 83 33 86 15 2 27 9 27 18 0 11 -17 14 -76 14 -55
0 -75 -3 -72 -12z"/>
<path d="M3804 2527 c-3 -8 -4 -54 -2 -103 l3 -89 64 -3 c99 -5 115 28 18 38
-44 4 -52 8 -52 25 0 16 8 21 45 25 25 3 45 10 45 15 0 6 -20 12 -45 15 -40 4
-45 8 -45 30 0 23 5 25 49 30 27 3 51 11 54 18 6 18 -127 17 -134 -1z"/>
<path d="M4197 2533 c-4 -3 -7 -48 -7 -100 0 -74 3 -93 14 -93 8 0 16 10 18
22 5 38 81 36 91 -2 3 -11 13 -20 22 -20 12 0 15 5 10 18 -16 39 -16 52 -1 74
22 30 20 60 -4 86 -17 18 -32 22 -79 22 -32 0 -61 -3 -64 -7z m123 -44 c9 -16
8 -25 -6 -40 -37 -41 -105 -10 -89 41 9 29 80 28 95 -1z"/>
<path d="M4610 2440 c0 -82 3 -100 15 -100 9 0 15 9 15 25 0 20 5 25 26 25 15
0 42 9 60 21 29 17 34 26 34 58 0 54 -23 71 -93 71 l-57 0 0 -100z m118 39 c4
-32 -18 -51 -55 -47 -20 2 -29 9 -31 26 -6 42 5 53 45 50 32 -3 38 -7 41 -29z"/>
<path d="M5007 2533 c-4 -3 -7 -48 -7 -100 0 -74 3 -93 14 -93 8 0 16 10 18
22 5 38 81 36 91 -2 3 -11 12 -20 21 -20 19 0 19 -1 5 38 -9 25 -8 36 5 54 20
29 20 52 0 83 -14 22 -23 25 -78 25 -35 0 -66 -3 -69 -7z m126 -46 c13 -20 13
-24 -9 -40 -43 -32 -94 -17 -94 28 0 30 8 35 51 35 27 0 41 -6 52 -23z"/>
<path d="M5422 2438 c4 -133 22 -132 26 2 2 85 0 100 -13 100 -13 0 -15 -15
-13 -102z"/>
<path d="M5706 2521 c-30 -33 -17 -63 42 -91 33 -16 51 -31 49 -40 -3 -18 -63
-26 -82 -10 -22 18 -30 -8 -9 -31 39 -43 134 -9 134 48 0 25 -30 53 -57 53
-24 0 -58 34 -48 49 3 6 27 11 51 11 64 0 53 24 -12 28 -40 2 -54 -1 -68 -17z"/>
<path d="M6084 2527 c-3 -8 -4 -54 -2 -103 l3 -89 64 -3 c99 -5 115 28 18 38
-44 4 -52 8 -52 25 0 16 8 21 45 25 25 3 45 10 45 15 0 6 -20 12 -45 15 -40 4
-45 8 -45 30 0 23 5 25 49 30 27 3 51 11 54 18 6 18 -127 17 -134 -1z"/>
<path d="M6482 2528 c-22 -22 -14 -65 16 -86 15 -11 36 -21 47 -23 12 -3 20
-12 20 -24 0 -17 -6 -20 -47 -18 -51 1 -58 -6 -32 -31 25 -26 76 -20 107 12
15 15 27 33 27 38 0 16 -44 54 -61 54 -19 0 -62 44 -52 53 3 4 26 7 51 7 30 0
42 4 40 13 -6 17 -100 21 -116 5z"/>
</g>
</svg>
